# xmcd
#
# Track frame offsets:
#	150
#	2806
#	15411
#	32848
#	49225
#	62097
#	74111
#	99249
#	116399
#	127932
#	140772
#	154230
#	173393
#	186804
#	197977
#	218220
#	234438
#
# Disc length: 3303 seconds
#
# Revision: 0
# Processed by: cddbd v1.5.2PL0 Copyright (c) Steve Scherf et al.
# Submitted via: dBpowerAMP V4.0
#
DISCID=ea0ce511
DTITLE=Chuch - Four Tall
DYEAR=1900
DGENRE=Roots Rock
TTITLE0=AM Country
TTITLE1=Satans Chariot
TTITLE2=Shiffy Man
TTITLE3=Yarger Yellow
TTITLE4=Easy Things
TTITLE5=Bloodshot and Tired
TTITLE6=Dolphin Head
TTITLE7=Marsha's Night Out
TTITLE8=Gene's Greasy Boots
TTITLE9=Grocery
TTITLE10=Terrance
TTITLE11=Double
TTITLE12=Crawlin
TTITLE13=F The Muffler
TTITLE14=High Window
TTITLE15=Meat Carpet
TTITLE16=Hate Train
EXTD=
EXTT0=
EXTT1=
EXTT2=
EXTT3=
EXTT4=
EXTT5=
EXTT6=
EXTT7=
EXTT8=
EXTT9=
EXTT10=
EXTT11=
EXTT12=
EXTT13=
EXTT14=
EXTT15=
EXTT16=
PLAYORDER=
